<svg id="Capa_1" data-name="Capa 1" xmlns="http://www.w3.org/2000/svg" viewBox="0 0 77.6 57.45"><defs><style>.cls-1{fill:#fff;}</style></defs><path class="cls-1" d="M45.3,47.1a1.85,1.85,0,0,0-.5-1.2L18,19.1a1.69,1.69,0,0,0-2.3,0L9.1,25.7a1.66,1.66,0,0,0-.5,1.2,1.85,1.85,0,0,0,.5,1.2L28.2,47.2,9.1,66.1a1.69,1.69,0,0,0,0,2.4l6.6,6.6a1.66,1.66,0,0,0,1.2.5,1.85,1.85,0,0,0,1.2-.5L44.9,48.3A2.84,2.84,0,0,0,45.3,47.1Z" transform="translate(-8.6 -18.65)"/><path class="cls-1" d="M84.6,65.7H43a1.58,1.58,0,0,0-1.6,1.6v7.2A1.58,1.58,0,0,0,43,76.1H84.6a1.58,1.58,0,0,0,1.6-1.6V67.3A1.64,1.64,0,0,0,84.6,65.7Z" transform="translate(-8.6 -18.65)"/></svg>